<svg xmlns="http://www.w3.org/2000/svg" width="188" height="48" viewBox="0 0 188 48" fill="none">
    <path d="M86.6555 19.4146C87.0882 19.4146 87.5079 19.345 87.9146 19.2058C88.3299 19.0666 88.6977 18.8752 89.0178 18.6316C89.338 18.3793 89.5933 18.0878 89.7836 17.7572C89.9826 17.4179 90.0865 17.0525 90.0951 16.661H92.3666C92.3579 17.2874 92.1935 17.8877 91.8733 18.4619C91.5618 19.0274 91.1422 19.5277 90.6143 19.9627C90.0865 20.389 89.4808 20.7327 88.7972 20.9937C88.1136 21.246 87.3997 21.3721 86.6555 21.3721C85.5912 21.3721 84.661 21.1807 83.8649 20.7979C83.0688 20.4151 82.4025 19.9018 81.866 19.258C81.3382 18.6055 80.9401 17.8573 80.6719 17.0133C80.4037 16.1607 80.2695 15.2646 80.2695 14.325V13.7768C80.2695 12.8459 80.4037 11.9541 80.6719 11.1015C80.9401 10.2489 81.3382 9.50067 81.866 8.85685C82.4025 8.20434 83.0688 7.68667 83.8649 7.30386C84.661 6.92105 85.5912 6.72964 86.6555 6.72964C87.4862 6.72964 88.2477 6.8645 88.9399 7.13421C89.6408 7.39521 90.2422 7.75627 90.7441 8.21739C91.2547 8.6698 91.6527 9.20921 91.9382 9.83563C92.2238 10.462 92.3666 11.132 92.3666 11.8454H90.0951C90.0865 11.4191 89.9913 11.0189 89.8096 10.6448C89.6365 10.2619 89.3986 9.92698 89.0957 9.63988C88.7928 9.35277 88.4294 9.12656 88.0054 8.96126C87.5901 8.79595 87.1401 8.7133 86.6555 8.7133C85.9114 8.7133 85.284 8.86555 84.7735 9.17006C84.2716 9.46587 83.8649 9.85738 83.5534 10.3446C83.2419 10.8231 83.0169 11.3625 82.8784 11.9628C82.7486 12.5632 82.6837 13.1678 82.6837 13.7768V14.325C82.6837 14.9427 82.7486 15.556 82.8784 16.1651C83.0169 16.7654 83.2375 17.3091 83.5404 17.7964C83.8519 18.2749 84.2586 18.6664 84.7605 18.9709C85.271 19.2667 85.9027 19.4146 86.6555 19.4146Z" fill="black"/>
    <path d="M102.439 12.2238L106.19 6.99065H109.007L103.776 13.9726L109.149 21.1111H106.372L102.491 15.7344L98.6098 21.1111H95.8062L101.18 13.9726L95.949 6.99065H98.7266L102.439 12.2238Z" fill="black"/>
    <path d="M111.927 13.9204C111.927 12.9025 112.074 11.9585 112.368 11.0885C112.662 10.2097 113.082 9.44847 113.627 8.80465C114.181 8.16083 114.852 7.65622 115.639 7.29081C116.427 6.9167 117.313 6.72964 118.3 6.72964C119.295 6.72964 120.186 6.9167 120.974 7.29081C121.77 7.65622 122.44 8.16083 122.986 8.80465C123.539 9.44847 123.963 10.2097 124.258 11.0885C124.552 11.9585 124.699 12.9025 124.699 13.9204V14.2075C124.699 15.2254 124.552 16.1694 124.258 17.0394C123.963 17.9095 123.539 18.6664 122.986 19.3102C122.44 19.954 121.774 20.4586 120.987 20.824C120.199 21.1894 119.312 21.3721 118.326 21.3721C117.331 21.3721 116.435 21.1894 115.639 20.824C114.852 20.4586 114.181 19.954 113.627 19.3102C113.082 18.6664 112.662 17.9095 112.368 17.0394C112.074 16.1694 111.927 15.2254 111.927 14.2075V13.9204ZM114.328 14.2075C114.328 14.9035 114.41 15.5691 114.575 16.2042C114.739 16.8306 114.986 17.3831 115.315 17.8616C115.652 18.3401 116.072 18.7186 116.574 18.997C117.076 19.2754 117.66 19.4146 118.326 19.4146C118.984 19.4146 119.559 19.2754 120.052 18.997C120.554 18.7186 120.969 18.3401 121.298 17.8616C121.636 17.3831 121.887 16.8306 122.051 16.2042C122.215 15.5691 122.298 14.9035 122.298 14.2075V13.9204C122.298 13.2331 122.211 12.5762 122.038 11.9498C121.874 11.3147 121.623 10.7579 121.285 10.2793C120.956 9.80083 120.541 9.42237 120.039 9.14396C119.546 8.85685 118.966 8.7133 118.3 8.7133C117.634 8.7133 117.054 8.85685 116.561 9.14396C116.067 9.42237 115.652 9.80083 115.315 10.2793C114.986 10.7579 114.739 11.3147 114.575 11.9498C114.41 12.5762 114.328 13.2331 114.328 13.9204V14.2075Z" fill="black"/>
    <path d="M128.333 19.1405C128.705 19.0883 129.017 18.8926 129.268 18.5533C129.527 18.2053 129.739 17.7354 129.904 17.1438C130.068 16.5522 130.198 15.8475 130.293 15.0297C130.397 14.2119 130.479 13.2983 130.54 12.2891L130.747 6.99065H139.794V19.1405H141.598L141.365 25.2612H139.197V21.1111H129.398V25.2612H127.243L127.009 19.1405H128.333ZM132.941 12.2891C132.898 13.0199 132.841 13.7159 132.772 14.3772C132.712 15.0384 132.634 15.6604 132.539 16.2434C132.443 16.8176 132.322 17.3483 132.175 17.8355C132.037 18.3227 131.864 18.7577 131.656 19.1405H137.393V9.22226H133.058L132.941 12.2891Z" fill="black"/>
    <path d="M156.071 21.1111H153.67V15.0819H146.816V21.1111H144.415V6.99065H146.816V13.1113H153.67V6.99065H156.071V21.1111Z" fill="black"/>
    <path d="M162.509 12.3413H163.794C164.546 12.3413 165.213 12.4501 165.793 12.6676C166.381 12.8851 166.87 13.1896 167.259 13.5811C167.657 13.9639 167.956 14.4207 168.155 14.9514C168.362 15.4821 168.466 16.0563 168.466 16.674C168.466 17.2917 168.362 17.8703 168.155 18.4097C167.956 18.9491 167.657 19.4189 167.259 19.8192C166.87 20.2194 166.385 20.5369 165.806 20.7718C165.226 20.998 164.555 21.1111 163.794 21.1111H160.107V6.99065H162.509V12.3413ZM172.347 21.1111H169.946V6.99065H172.347V21.1111ZM162.509 14.3119V19.1405H163.794C164.2 19.1405 164.546 19.0753 164.832 18.9448C165.118 18.8056 165.347 18.6272 165.52 18.4097C165.702 18.1835 165.831 17.9312 165.909 17.6528C165.996 17.3657 166.039 17.0699 166.039 16.7654C166.039 16.4783 165.996 16.1912 165.909 15.904C165.831 15.6082 165.702 15.3429 165.52 15.108C165.347 14.8731 165.118 14.6817 164.832 14.5338C164.546 14.3859 164.2 14.3119 163.794 14.3119H162.509Z" fill="black"/>
    <path d="M185.599 6.99065H188.001V21.1111H185.599V10.697L178.733 21.1111H176.345V6.99065H178.733V17.4179L185.599 6.99065ZM185.898 1.23544C185.898 1.74876 185.807 2.22292 185.625 2.65793C185.444 3.08424 185.184 3.44965 184.847 3.75416C184.509 4.05867 184.103 4.29793 183.627 4.47193C183.151 4.63724 182.619 4.71989 182.03 4.71989C181.433 4.71989 180.897 4.63724 180.421 4.47193C179.945 4.29793 179.538 4.05867 179.201 3.75416C178.863 3.44965 178.599 3.08424 178.409 2.65793C178.227 2.22292 178.136 1.74876 178.136 1.23544H180.083C180.083 1.49645 180.122 1.74876 180.2 1.99236C180.278 2.22727 180.395 2.43173 180.55 2.60573C180.706 2.77974 180.905 2.91894 181.147 3.02334C181.39 3.12775 181.684 3.17995 182.03 3.17995C182.368 3.17995 182.653 3.12775 182.887 3.02334C183.129 2.91894 183.328 2.77974 183.484 2.60573C183.64 2.43173 183.756 2.22727 183.834 1.99236C183.912 1.74876 183.951 1.49645 183.951 1.23544H185.898Z" fill="black"/>
    <path d="M69.2755 36.2512H66.9911V42.2674H64.5898V28.1469H66.9911V34.124H69.0678L74.2986 28.1469H77.219L71.1965 34.9461L77.6863 42.2674H74.6361L69.2755 36.2512Z" fill="black"/>
    <path d="M80.0097 35.0766C80.0097 34.0587 80.1568 33.1147 80.451 32.2447C80.7452 31.366 81.1649 30.6047 81.71 29.9609C82.2638 29.3171 82.9344 28.8125 83.7219 28.4471C84.5093 28.0729 85.3962 27.8859 86.3827 27.8859C87.3778 27.8859 88.2691 28.0729 89.0565 28.4471C89.8526 28.8125 90.5232 29.3171 91.0683 29.9609C91.6221 30.6047 92.0461 31.366 92.3403 32.2447C92.6346 33.1147 92.7817 34.0587 92.7817 35.0766V35.3637C92.7817 36.3817 92.6346 37.3256 92.3403 38.1957C92.0461 39.0657 91.6221 39.8226 91.0683 40.4664C90.5232 41.1103 89.8569 41.6149 89.0695 41.9803C88.282 42.3457 87.3951 42.5284 86.4086 42.5284C85.4135 42.5284 84.5179 42.3457 83.7219 41.9803C82.9344 41.6149 82.2638 41.1103 81.71 40.4664C81.1649 39.8226 80.7452 39.0657 80.451 38.1957C80.1568 37.3256 80.0097 36.3817 80.0097 35.3637V35.0766ZM82.4109 35.3637C82.4109 36.0598 82.4931 36.7253 82.6575 37.3604C82.8219 37.9869 83.0685 38.5393 83.3974 39.0178C83.7348 39.4964 84.1545 39.8748 84.6564 40.1532C85.1583 40.4316 85.7424 40.5708 86.4086 40.5708C87.0663 40.5708 87.6417 40.4316 88.1349 40.1532C88.6368 39.8748 89.0522 39.4964 89.381 39.0178C89.7185 38.5393 89.9694 37.9869 90.1338 37.3604C90.2982 36.7253 90.3804 36.0598 90.3804 35.3637V35.0766C90.3804 34.3893 90.2939 33.7325 90.1208 33.106C89.9564 32.4709 89.7055 31.9141 89.368 31.4356C89.0392 30.9571 88.6238 30.5786 88.122 30.3002C87.6287 30.0131 87.049 29.8695 86.3827 29.8695C85.7164 29.8695 85.1366 30.0131 84.6434 30.3002C84.1502 30.5786 83.7348 30.9571 83.3974 31.4356C83.0685 31.9141 82.8219 32.4709 82.6575 33.106C82.4931 33.7325 82.4109 34.3893 82.4109 35.0766V35.3637Z" fill="black"/>
    <path d="M96.416 40.2968C96.788 40.2446 97.0996 40.0488 97.3505 39.7095C97.6101 39.3615 97.8221 38.8917 97.9865 38.3001C98.1509 37.7085 98.2807 37.0037 98.3759 36.1859C98.4797 35.3681 98.5619 34.4546 98.6225 33.4453L98.8302 28.1469H107.877V40.2968H109.681L109.448 46.4174H107.28V42.2674H97.4803V46.4174H95.3257L95.092 40.2968H96.416ZM101.024 33.4453C100.98 34.1762 100.924 34.8722 100.855 35.5334C100.794 36.1946 100.717 36.8167 100.621 37.3996C100.526 37.9738 100.405 38.5045 100.258 38.9917C100.119 39.479 99.9464 39.914 99.7387 40.2968H105.476V30.3785H101.141L101.024 33.4453Z" fill="black"/>
    <path d="M73.8443 6.99008H76.2456V21.1106H73.8443V10.6964L66.9781 21.1106H64.5898V6.99008H66.9781V17.4173L73.8443 6.99008Z" fill="black"/>
    <rect x="5" y="6" width="38" height="38" fill="white"/>
    <path fill-rule="evenodd" clip-rule="evenodd" d="M2.87879 2.89447C0 5.78895 0 10.4475 0 19.7647V28.2353C0 37.5525 0 42.2111 2.87879 45.1055C5.75759 48 10.3909 48 19.6576 48H28.0823C37.349 48 41.9824 48 44.8612 45.1055C47.74 42.2111 47.74 37.5525 47.74 28.2353V19.7647C47.74 10.4475 47.74 5.78895 44.8612 2.89447C41.9824 0 37.349 0 28.0823 0H19.6576C10.3909 0 5.75759 0 2.87879 2.89447ZM9.9357 13.5774C9.82881 13.8368 9.82881 14.1657 9.82881 14.8235C9.82881 15.4813 9.82881 15.8102 9.9357 16.0697C10.0782 16.4156 10.3516 16.6904 10.6956 16.8337C10.9536 16.9412 11.2808 16.9412 11.935 16.9412H23.1679C23.8222 16.9412 24.1493 16.9412 24.4073 16.8337C24.7514 16.6904 25.0247 16.4156 25.1672 16.0697C25.2741 15.8102 25.2741 15.4813 25.2741 14.8235C25.2741 14.1657 25.2741 13.8368 25.1672 13.5774C25.0247 13.2315 24.7514 12.9566 24.4073 12.8133C24.1493 12.7059 23.8222 12.7059 23.1679 12.7059H11.935C11.2808 12.7059 10.9536 12.7059 10.6956 12.8133C10.3516 12.9566 10.0782 13.2315 9.9357 13.5774ZM12.6211 24.1628C12.3631 24.2702 12.1318 24.5028 11.6692 24.9679C11.2066 25.433 10.9753 25.6657 10.8684 25.9251C10.7259 26.271 10.7259 26.6597 10.8684 27.0056C10.9753 27.2651 11.2066 27.4976 11.6692 27.9627L22.3424 38.6941C22.805 39.1593 23.0363 39.3918 23.2944 39.4993C23.4705 39.5726 23.6577 39.6084 23.8447 39.6067C24.034 39.6094 24.2238 39.5737 24.4022 39.4994C24.6602 39.3919 24.8915 39.1594 25.3541 38.6942L36.0274 27.9628C36.49 27.4977 36.7213 27.2651 36.8282 27.0057C36.9707 26.6598 36.9707 26.2711 36.8282 25.9252C36.7213 25.6657 36.49 25.4332 36.0274 24.968C35.5648 24.5029 35.3334 24.2703 35.0754 24.1629C34.7314 24.0196 34.3448 24.0196 34.0007 24.1629C33.7427 24.2703 33.5114 24.5029 33.0489 24.9679L23.8483 34.2186L14.6478 24.9679C14.1852 24.5028 13.9538 24.2702 13.6958 24.1628C13.3518 24.0195 12.9652 24.0195 12.6211 24.1628ZM34.4008 11.2941C32.4622 11.2941 30.8906 12.8743 30.8906 14.8235C30.8906 16.7728 32.4622 18.3529 34.4008 18.3529C36.3395 18.3529 37.9111 16.7728 37.9111 14.8235C37.9111 12.8743 36.3395 11.2941 34.4008 11.2941Z" fill="#001EF0"/>
</svg>